<svg xmlns="http://www.w3.org/2000/svg" xmlns:xlink="http://www.w3.org/1999/xlink" width="2000" zoomAndPan="magnify" viewBox="0 0 1500 1499.999933" height="2000" preserveAspectRatio="xMidYMid meet" version="1.0"><defs><g/><clipPath id="c3f8c4678b"><path d="M 452 340 L 1050 340 L 1050 937.175781 L 452 937.175781 Z M 452 340 " clip-rule="nonzero"/></clipPath></defs><rect x="-150" width="1800" fill="#ffffff" y="-149.999993" height="1799.99992" fill-opacity="1"/><rect x="-150" width="1800" fill="#fff0f5" y="-149.999993" height="1799.99992" fill-opacity="1"/><g clip-path="url(#c3f8c4678b)"><path fill="#000000" d="M 1044.761719 698.886719 L 772.75 474.820312 C 791.164062 458.605469 808.609375 441.410156 825.09375 423.238281 C 826.21875 421.761719 827.257812 420.226562 828.207031 418.632812 C 829.160156 417.042969 830.015625 415.398438 830.78125 413.710938 C 831.546875 412.019531 832.214844 410.292969 832.789062 408.527344 C 833.359375 406.761719 833.828125 404.96875 834.195312 403.148438 C 834.5625 401.332031 834.828125 399.496094 834.988281 397.648438 C 835.148438 395.800781 835.203125 393.949219 835.15625 392.09375 C 835.109375 390.238281 834.957031 388.390625 834.699219 386.554688 C 834.441406 384.71875 834.082031 382.898438 833.621094 381.101562 C 833.105469 379.082031 832.480469 377.09375 831.742188 375.140625 C 831.003906 373.1875 830.160156 371.285156 829.207031 369.429688 C 828.253906 367.574219 827.199219 365.777344 826.042969 364.039062 C 824.890625 362.300781 823.640625 360.636719 822.292969 359.039062 C 820.949219 357.441406 819.519531 355.925781 818.003906 354.492188 C 816.492188 353.058594 814.898438 351.714844 813.230469 350.460938 C 811.566406 349.203125 809.832031 348.046875 808.035156 346.988281 C 806.238281 345.929688 804.386719 344.976562 802.480469 344.125 C 800.382812 343.238281 798.234375 342.5 796.035156 341.914062 C 793.835938 341.328125 791.605469 340.898438 789.34375 340.621094 C 787.082031 340.347656 784.816406 340.230469 782.539062 340.273438 C 780.261719 340.3125 778 340.515625 775.75 340.871094 C 773.503906 341.230469 771.289062 341.742188 769.113281 342.410156 C 766.9375 343.078125 764.816406 343.894531 762.753906 344.859375 C 760.691406 345.820312 758.707031 346.925781 756.796875 348.164062 C 754.886719 349.40625 753.074219 350.773438 751.355469 352.269531 C 749.636719 350.777344 747.824219 349.414062 745.914062 348.175781 C 744.003906 346.9375 742.019531 345.835938 739.953125 344.875 C 737.890625 343.914062 735.773438 343.097656 733.597656 342.433594 C 731.417969 341.765625 729.207031 341.253906 726.960938 340.894531 C 724.710938 340.539062 722.449219 340.335938 720.175781 340.292969 C 717.898438 340.25 715.632812 340.367188 713.371094 340.640625 C 711.113281 340.914062 708.882812 341.339844 706.683594 341.925781 C 704.480469 342.507812 702.332031 343.242188 700.234375 344.125 C 698.328125 344.976562 696.476562 345.929688 694.679688 346.988281 C 692.882812 348.046875 691.148438 349.203125 689.484375 350.460938 C 687.816406 351.714844 686.222656 353.058594 684.707031 354.492188 C 683.195312 355.925781 681.765625 357.441406 680.421875 359.039062 C 679.074219 360.636719 677.824219 362.300781 676.671875 364.039062 C 675.515625 365.777344 674.460938 367.574219 673.507812 369.429688 C 672.554688 371.285156 671.710938 373.1875 670.972656 375.140625 C 670.234375 377.09375 669.609375 379.082031 669.09375 381.101562 C 668.632812 382.898438 668.273438 384.71875 668.015625 386.554688 C 667.757812 388.390625 667.605469 390.238281 667.558594 392.09375 C 667.511719 393.949219 667.566406 395.800781 667.726562 397.648438 C 667.886719 399.496094 668.152344 401.332031 668.519531 403.148438 C 668.886719 404.96875 669.355469 406.761719 669.925781 408.527344 C 670.5 410.292969 671.167969 412.019531 671.933594 413.710938 C 672.699219 415.398438 673.554688 417.042969 674.507812 418.632812 C 675.457031 420.226562 676.496094 421.761719 677.621094 423.238281 C 694.105469 441.410156 711.550781 458.605469 729.964844 474.820312 L 457.953125 698.886719 C 457.242188 699.46875 456.59375 700.117188 456.007812 700.832031 C 455.421875 701.542969 454.914062 702.308594 454.480469 703.121094 C 454.042969 703.933594 453.691406 704.78125 453.425781 705.664062 C 453.15625 706.542969 452.976562 707.445312 452.886719 708.363281 C 452.796875 709.28125 452.796875 710.195312 452.886719 711.113281 C 452.976562 712.03125 453.15625 712.933594 453.421875 713.8125 C 453.691406 714.695312 454.042969 715.542969 454.476562 716.359375 C 454.910156 717.171875 455.417969 717.933594 456.003906 718.648438 C 456.589844 719.359375 457.238281 720.007812 457.949219 720.59375 C 458.660156 721.179688 459.425781 721.6875 460.238281 722.125 C 461.050781 722.558594 461.898438 722.910156 462.78125 723.179688 C 463.660156 723.445312 464.5625 723.625 465.480469 723.71875 C 466.394531 723.808594 467.3125 723.808594 468.230469 723.71875 C 469.148438 723.628906 470.050781 723.449219 470.929688 723.183594 C 471.8125 722.917969 472.660156 722.566406 473.476562 722.132812 C 474.289062 721.699219 475.050781 721.1875 475.765625 720.605469 L 527.484375 677.980469 L 527.484375 923.058594 C 527.476562 923.980469 527.558594 924.898438 527.734375 925.804688 C 527.910156 926.714844 528.171875 927.59375 528.519531 928.453125 C 528.867188 929.308594 529.296875 930.121094 529.808594 930.890625 C 530.316406 931.664062 530.898438 932.378906 531.546875 933.035156 C 532.199219 933.691406 532.910156 934.277344 533.675781 934.792969 C 534.441406 935.308594 535.253906 935.742188 536.105469 936.097656 C 536.960938 936.453125 537.839844 936.722656 538.746094 936.902344 C 539.652344 937.085938 540.570312 937.175781 541.492188 937.175781 L 677.484375 937.175781 C 678.402344 937.171875 679.308594 937.082031 680.210938 936.902344 C 681.109375 936.722656 681.984375 936.457031 682.832031 936.101562 C 683.679688 935.75 684.484375 935.320312 685.246094 934.808594 C 686.007812 934.300781 686.714844 933.71875 687.363281 933.070312 C 688.011719 932.421875 688.589844 931.71875 689.101562 930.953125 C 689.613281 930.191406 690.042969 929.386719 690.394531 928.539062 C 690.746094 927.691406 691.011719 926.820312 691.191406 925.917969 C 691.375 925.019531 691.464844 924.109375 691.464844 923.191406 L 691.464844 804.550781 C 691.464844 802.589844 691.5625 800.632812 691.753906 798.679688 C 691.945312 796.726562 692.234375 794.789062 692.617188 792.867188 C 693 790.941406 693.476562 789.042969 694.046875 787.164062 C 694.613281 785.289062 695.273438 783.441406 696.023438 781.632812 C 696.777344 779.820312 697.613281 778.046875 698.539062 776.316406 C 699.460938 774.585938 700.46875 772.90625 701.558594 771.277344 C 702.648438 769.644531 703.816406 768.070312 705.0625 766.554688 C 706.304688 765.039062 707.621094 763.585938 709.007812 762.199219 C 710.394531 760.8125 711.847656 759.5 713.363281 758.253906 C 714.878906 757.007812 716.453125 755.84375 718.082031 754.753906 C 719.714844 753.664062 721.394531 752.65625 723.125 751.730469 C 724.855469 750.804688 726.625 749.96875 728.4375 749.21875 C 730.25 748.46875 732.09375 747.808594 733.972656 747.238281 C 735.847656 746.667969 737.75 746.191406 739.671875 745.808594 C 741.597656 745.425781 743.535156 745.140625 745.488281 744.949219 C 747.4375 744.753906 749.394531 744.660156 751.359375 744.660156 C 753.320312 744.660156 755.277344 744.753906 757.226562 744.949219 C 759.179688 745.140625 761.117188 745.425781 763.042969 745.808594 C 764.964844 746.191406 766.867188 746.667969 768.742188 747.238281 C 770.621094 747.808594 772.464844 748.46875 774.277344 749.21875 C 776.089844 749.96875 777.859375 750.804688 779.589844 751.730469 C 781.320312 752.65625 783 753.664062 784.632812 754.753906 C 786.261719 755.84375 787.835938 757.007812 789.351562 758.253906 C 790.867188 759.5 792.320312 760.8125 793.707031 762.199219 C 795.09375 763.585938 796.410156 765.039062 797.652344 766.554688 C 798.898438 768.070312 800.066406 769.644531 801.15625 771.277344 C 802.246094 772.90625 803.253906 774.585938 804.175781 776.316406 C 805.101562 778.046875 805.9375 779.820312 806.691406 781.632812 C 807.441406 783.441406 808.101562 785.289062 808.667969 787.164062 C 809.238281 789.042969 809.714844 790.941406 810.097656 792.867188 C 810.480469 794.789062 810.769531 796.726562 810.960938 798.679688 C 811.152344 800.632812 811.25 802.589844 811.25 804.550781 L 811.25 923.058594 C 811.25 923.976562 811.339844 924.882812 811.523438 925.78125 C 811.703125 926.683594 811.96875 927.554688 812.320312 928.402344 C 812.671875 929.25 813.101562 930.054688 813.613281 930.820312 C 814.125 931.582031 814.703125 932.285156 815.351562 932.9375 C 816 933.585938 816.707031 934.164062 817.46875 934.675781 C 818.230469 935.183594 819.035156 935.617188 819.882812 935.96875 C 820.730469 936.320312 821.605469 936.585938 822.503906 936.765625 C 823.40625 936.945312 824.3125 937.039062 825.230469 937.039062 L 961.222656 937.039062 C 962.140625 937.039062 963.050781 936.949219 963.953125 936.769531 C 964.851562 936.589844 965.726562 936.328125 966.578125 935.976562 C 967.425781 935.625 968.230469 935.195312 968.996094 934.683594 C 969.761719 934.175781 970.46875 933.59375 971.117188 932.945312 C 971.769531 932.296875 972.347656 931.589844 972.859375 930.828125 C 973.371094 930.0625 973.804688 929.257812 974.15625 928.410156 C 974.507812 927.5625 974.777344 926.6875 974.957031 925.785156 C 975.136719 924.886719 975.230469 923.976562 975.230469 923.058594 L 975.230469 677.871094 L 1026.949219 720.496094 C 1027.664062 721.078125 1028.425781 721.589844 1029.238281 722.023438 C 1030.054688 722.457031 1030.902344 722.804688 1031.78125 723.070312 C 1032.664062 723.339844 1033.566406 723.515625 1034.484375 723.605469 C 1035.398438 723.695312 1036.316406 723.695312 1037.234375 723.601562 C 1038.152344 723.511719 1039.050781 723.332031 1039.933594 723.066406 C 1040.8125 722.796875 1041.660156 722.445312 1042.472656 722.007812 C 1043.285156 721.574219 1044.046875 721.066406 1044.761719 720.480469 C 1045.472656 719.894531 1046.121094 719.246094 1046.703125 718.535156 C 1047.289062 717.820312 1047.796875 717.058594 1048.234375 716.246094 C 1048.667969 715.433594 1049.019531 714.585938 1049.285156 713.703125 C 1049.550781 712.820312 1049.730469 711.921875 1049.820312 711.003906 C 1049.910156 710.085938 1049.910156 709.167969 1049.820312 708.253906 C 1049.730469 707.335938 1049.550781 706.4375 1049.285156 705.554688 C 1049.019531 704.671875 1048.667969 703.824219 1048.234375 703.011719 C 1047.796875 702.199219 1047.289062 701.4375 1046.703125 700.722656 C 1046.121094 700.011719 1045.472656 699.363281 1044.761719 698.777344 Z M 699.773438 406.132812 C 698.804688 404.835938 697.992188 403.449219 697.339844 401.96875 C 696.683594 400.488281 696.203125 398.953125 695.898438 397.363281 C 695.59375 395.773438 695.46875 394.171875 695.527344 392.554688 C 695.585938 390.933594 695.824219 389.34375 696.246094 387.78125 C 696.773438 385.769531 697.523438 383.84375 698.488281 382.003906 C 699.457031 380.164062 700.617188 378.453125 701.96875 376.875 C 703.324219 375.296875 704.839844 373.890625 706.511719 372.65625 C 708.183594 371.421875 709.976562 370.390625 711.882812 369.5625 C 726.082031 363.046875 737.808594 379.121094 740.523438 380.421875 C 740.851562 380.816406 741.203125 381.191406 741.570312 381.546875 C 741.941406 381.902344 742.328125 382.238281 742.734375 382.550781 C 743.140625 382.863281 743.5625 383.152344 744 383.417969 C 744.4375 383.6875 744.886719 383.929688 745.351562 384.144531 C 745.816406 384.363281 746.292969 384.554688 746.777344 384.71875 C 747.261719 384.882812 747.753906 385.023438 748.253906 385.132812 C 748.753906 385.246094 749.261719 385.328125 749.769531 385.382812 C 750.28125 385.441406 750.789062 385.46875 751.304688 385.46875 C 751.816406 385.46875 752.328125 385.441406 752.835938 385.382812 C 753.347656 385.328125 753.851562 385.246094 754.351562 385.132812 C 754.851562 385.023438 755.34375 384.882812 755.828125 384.71875 C 756.316406 384.554688 756.789062 384.363281 757.253906 384.144531 C 757.71875 383.929688 758.167969 383.6875 758.605469 383.417969 C 759.042969 383.152344 759.464844 382.863281 759.871094 382.550781 C 760.277344 382.238281 760.664062 381.902344 761.035156 381.546875 C 761.402344 381.191406 761.753906 380.816406 762.082031 380.421875 C 762.246094 380.261719 776.824219 363.183594 790.777344 369.5625 C 792.683594 370.390625 794.476562 371.421875 796.148438 372.65625 C 797.820312 373.890625 799.335938 375.296875 800.691406 376.875 C 802.042969 378.453125 803.203125 380.164062 804.171875 382.003906 C 805.136719 383.84375 805.886719 385.769531 806.417969 387.78125 C 806.835938 389.34375 807.074219 390.933594 807.132812 392.550781 C 807.191406 394.167969 807.070312 395.769531 806.765625 397.359375 C 806.460938 398.949219 805.984375 400.484375 805.335938 401.964844 C 804.683594 403.445312 803.878906 404.835938 802.914062 406.132812 C 786.582031 423.789062 769.398438 440.566406 751.355469 456.46875 C 733.300781 440.574219 716.105469 423.796875 699.773438 406.132812 Z M 947.210938 909.046875 L 839.238281 909.046875 L 839.238281 804.550781 C 839.0625 798.804688 838.953125 797.371094 838.8125 795.9375 C 838.671875 794.507812 838.496094 793.082031 838.28125 791.660156 C 838.070312 790.238281 837.824219 788.820312 837.542969 787.410156 C 837.261719 786 836.945312 784.597656 836.597656 783.203125 C 836.246094 781.808594 835.863281 780.425781 835.445312 779.050781 C 835.027344 777.671875 834.574219 776.308594 834.089844 774.957031 C 833.605469 773.601562 833.089844 772.261719 832.539062 770.933594 C 831.988281 769.605469 831.402344 768.289062 830.789062 766.992188 C 830.171875 765.691406 829.527344 764.40625 828.847656 763.140625 C 828.171875 761.871094 827.460938 760.621094 826.722656 759.386719 C 825.984375 758.15625 825.214844 756.941406 824.414062 755.746094 C 823.613281 754.550781 822.785156 753.375 821.929688 752.222656 C 821.074219 751.066406 820.1875 749.933594 819.277344 748.824219 C 818.363281 747.710938 817.425781 746.625 816.457031 745.558594 C 815.492188 744.492188 814.5 743.453125 813.484375 742.4375 C 812.46875 741.417969 811.425781 740.429688 810.359375 739.464844 C 809.296875 738.496094 808.207031 737.558594 807.09375 736.648438 C 805.984375 735.734375 804.851562 734.851562 803.695312 733.996094 C 802.539062 733.140625 801.363281 732.3125 800.167969 731.511719 C 798.972656 730.714844 797.757812 729.945312 796.523438 729.207031 C 795.292969 728.46875 794.042969 727.757812 792.773438 727.082031 C 791.503906 726.402344 790.222656 725.757812 788.921875 725.144531 C 787.621094 724.527344 786.308594 723.945312 784.980469 723.398438 C 783.648438 722.847656 782.308594 722.328125 780.957031 721.84375 C 779.601562 721.359375 778.238281 720.910156 776.859375 720.492188 C 775.484375 720.074219 774.097656 719.691406 772.703125 719.34375 C 771.308594 718.992188 769.90625 718.679688 768.496094 718.398438 C 767.085938 718.117188 765.671875 717.871094 764.25 717.660156 C 762.828125 717.449219 761.398438 717.273438 759.96875 717.132812 C 758.539062 716.992188 757.105469 716.886719 755.667969 716.816406 C 754.230469 716.746094 752.796875 716.710938 751.355469 716.710938 C 749.917969 716.710938 748.484375 716.746094 747.046875 716.816406 C 745.609375 716.886719 744.175781 716.992188 742.746094 717.132812 C 741.316406 717.273438 739.886719 717.449219 738.464844 717.660156 C 737.042969 717.871094 735.628906 718.117188 734.21875 718.398438 C 732.808594 718.679688 731.40625 718.992188 730.011719 719.34375 C 728.617188 719.691406 727.230469 720.074219 725.855469 720.492188 C 724.476562 720.910156 723.113281 721.359375 721.757812 721.84375 C 720.40625 722.328125 719.066406 722.847656 717.734375 723.398438 C 716.40625 723.945312 715.09375 724.527344 713.792969 725.144531 C 712.492188 725.757812 711.210938 726.402344 709.941406 727.082031 C 708.671875 727.757812 707.421875 728.46875 706.191406 729.207031 C 704.957031 729.945312 703.742188 730.714844 702.546875 731.511719 C 701.351562 732.3125 700.175781 733.140625 699.019531 733.996094 C 697.863281 734.851562 696.730469 735.734375 695.621094 736.648438 C 694.507812 737.558594 693.417969 738.496094 692.355469 739.464844 C 691.289062 740.429688 690.246094 741.417969 689.230469 742.4375 C 688.214844 743.453125 687.222656 744.492188 686.257812 745.558594 C 685.289062 746.625 684.351562 747.710938 683.4375 748.824219 C 682.527344 749.933594 681.640625 751.066406 680.785156 752.222656 C 679.929688 753.375 679.101562 754.550781 678.300781 755.746094 C 677.5 756.941406 676.730469 758.15625 675.992188 759.386719 C 675.253906 760.621094 674.542969 761.871094 673.867188 763.140625 C 673.1875 764.40625 672.542969 765.691406 671.925781 766.992188 C 671.3125 768.289062 670.726562 769.605469 670.175781 770.933594 C 669.625 772.261719 669.109375 773.601562 668.625 774.957031 C 668.140625 776.308594 667.6875 777.671875 667.269531 779.050781 C 666.851562 780.425781 666.46875 781.808594 666.117188 783.203125 C 665.769531 784.597656 665.453125 786 665.171875 787.410156 C 664.890625 788.820312 664.644531 790.238281 664.433594 791.660156 C 664.21875 793.082031 664.042969 794.507812 663.902344 795.9375 C 663.761719 797.371094 663.652344 798.804688 663.582031 800.238281 C 663.511719 801.675781 663.476562 803.113281 663.476562 804.550781 L 663.476562 909.046875 L 555.476562 909.046875 L 555.476562 654.820312 L 751.355469 493.445312 L 947.238281 654.820312 Z M 947.210938 909.046875 " fill-opacity="1" fill-rule="nonzero"/></g><!-- Door panel: arch-top shape to the right of door opening, representing door swung open to the right (hinge on left at x≈811) --><path fill="#888888" fill-opacity="1" d="M 811.25 804.550781 Q 844 758 876 804.550781 L 876 923 L 811.25 923 Z"/><g fill="#000000" fill-opacity="1"><g transform="translate(516.67971, 1110.304276)"><g><path d="M 55.046875 -100.25 L 72.65625 -100.25 L 72.65625 0 L 56.546875 0 L 55.765625 -7.953125 C 53.304688 -4.640625 50.242188 -2.25 46.578125 -0.78125 C 42.910156 0.6875 39.113281 1.421875 35.1875 1.421875 C 30.21875 1.421875 25.816406 0.441406 21.984375 -1.515625 C 18.160156 -3.484375 14.945312 -6.179688 12.34375 -9.609375 C 9.738281 -13.035156 7.773438 -16.960938 6.453125 -21.390625 C 5.128906 -25.816406 4.46875 -30.507812 4.46875 -35.46875 C 4.46875 -40.382812 5.128906 -45.054688 6.453125 -49.484375 C 7.773438 -53.910156 9.722656 -57.835938 12.296875 -61.265625 C 14.878906 -64.691406 18.0625 -67.394531 21.84375 -69.375 C 25.632812 -71.363281 29.988281 -72.359375 34.90625 -72.359375 C 38.59375 -72.359375 42.253906 -71.695312 45.890625 -70.375 C 49.535156 -69.050781 52.585938 -66.851562 55.046875 -63.78125 Z M 39.375 -14.265625 C 43.34375 -14.265625 46.59375 -15.195312 49.125 -17.0625 C 51.65625 -18.925781 53.523438 -21.453125 54.734375 -24.640625 C 55.941406 -27.835938 56.546875 -31.445312 56.546875 -35.46875 C 56.546875 -39.445312 55.941406 -43.03125 54.734375 -46.21875 C 53.523438 -49.414062 51.65625 -51.957031 49.125 -53.84375 C 46.59375 -55.738281 43.34375 -56.6875 39.375 -56.6875 C 35.40625 -56.6875 32.140625 -55.738281 29.578125 -53.84375 C 27.023438 -51.957031 25.132812 -49.40625 23.90625 -46.1875 C 22.675781 -42.96875 22.0625 -39.394531 22.0625 -35.46875 C 22.0625 -31.5 22.675781 -27.90625 23.90625 -24.6875 C 25.132812 -21.46875 27.023438 -18.925781 29.578125 -17.0625 C 32.140625 -15.195312 35.40625 -14.265625 39.375 -14.265625 Z M 39.375 -14.265625 "/></g></g></g><g fill="#000000" fill-opacity="1"><g transform="translate(599.752697, 1110.304276)"><g><path d="M 10.28125 0 L 10.28125 -70.875 L 27.171875 -70.875 L 27.171875 -58.953125 C 28.210938 -61.835938 29.710938 -64.273438 31.671875 -66.265625 C 33.640625 -68.253906 35.890625 -69.765625 38.421875 -70.796875 C 40.953125 -71.835938 43.539062 -72.359375 46.1875 -72.359375 C 48.550781 -72.359375 50.878906 -71.941406 53.171875 -71.109375 C 55.460938 -70.285156 57.460938 -69 59.171875 -67.25 L 51.296875 -53.0625 C 48.878906 -54.675781 46.300781 -55.484375 43.5625 -55.484375 C 41.53125 -55.484375 39.53125 -55 37.5625 -54.03125 C 35.601562 -53.0625 33.832031 -51.546875 32.25 -49.484375 C 30.664062 -47.429688 29.398438 -44.78125 28.453125 -41.53125 C 27.503906 -38.289062 27.03125 -34.425781 27.03125 -29.9375 L 27.03125 0 Z M 10.28125 0 "/></g></g></g><g fill="#000000" fill-opacity="1"><g transform="translate(657.570361, 1110.304276)"><g><path d="M 39.9375 1.421875 C 34.457031 1.421875 29.492188 0.441406 25.046875 -1.515625 C 20.597656 -3.484375 16.773438 -6.171875 13.578125 -9.578125 C 10.390625 -12.984375 7.929688 -16.921875 6.203125 -21.390625 C 4.484375 -25.859375 3.625 -30.597656 3.625 -35.609375 C 3.625 -40.628906 4.484375 -45.347656 6.203125 -49.765625 C 7.929688 -54.191406 10.390625 -58.09375 13.578125 -61.46875 C 16.773438 -64.851562 20.597656 -67.515625 25.046875 -69.453125 C 29.492188 -71.390625 34.457031 -72.359375 39.9375 -72.359375 C 45.425781 -72.359375 50.394531 -71.390625 54.84375 -69.453125 C 59.289062 -67.515625 63.109375 -64.851562 66.296875 -61.46875 C 69.492188 -58.09375 71.953125 -54.191406 73.671875 -49.765625 C 75.398438 -45.347656 76.265625 -40.628906 76.265625 -35.609375 C 76.265625 -30.597656 75.398438 -25.859375 73.671875 -21.390625 C 71.953125 -16.921875 69.492188 -12.984375 66.296875 -9.578125 C 63.109375 -6.171875 59.289062 -3.484375 54.84375 -1.515625 C 50.394531 0.441406 45.425781 1.421875 39.9375 1.421875 Z M 39.9375 -13.484375 C 43.207031 -13.484375 46.007812 -14.082031 48.34375 -15.28125 C 50.6875 -16.488281 52.578125 -18.117188 54.015625 -20.171875 C 55.460938 -22.234375 56.53125 -24.597656 57.21875 -27.265625 C 57.90625 -29.941406 58.25 -32.722656 58.25 -35.609375 C 58.25 -38.546875 57.90625 -41.3125 57.21875 -43.90625 C 56.53125 -46.507812 55.460938 -48.828125 54.015625 -50.859375 C 52.578125 -52.898438 50.6875 -54.5 48.34375 -55.65625 C 46.007812 -56.8125 43.207031 -57.390625 39.9375 -57.390625 C 35.59375 -57.390625 32.070312 -56.382812 29.375 -54.375 C 26.675781 -52.363281 24.710938 -49.703125 23.484375 -46.390625 C 22.253906 -43.085938 21.640625 -39.492188 21.640625 -35.609375 C 21.640625 -32.722656 21.984375 -29.941406 22.671875 -27.265625 C 23.359375 -24.597656 24.429688 -22.234375 25.890625 -20.171875 C 27.359375 -18.117188 29.25 -16.488281 31.5625 -15.28125 C 33.882812 -14.082031 36.675781 -13.484375 39.9375 -13.484375 Z M 39.9375 -13.484375 "/></g></g></g><g fill="#000000" fill-opacity="1"><g transform="translate(737.592845, 1110.304276)"><g><path d="M 10.421875 31.078125 L 10.421875 -70.875 L 28.03125 -70.875 L 28.03125 -63.78125 C 30.53125 -66.851562 33.53125 -69.050781 37.03125 -70.375 C 40.53125 -71.695312 44.171875 -72.359375 47.953125 -72.359375 C 52.921875 -72.359375 57.304688 -71.375 61.109375 -69.40625 C 64.921875 -67.445312 68.128906 -64.753906 70.734375 -61.328125 C 73.335938 -57.898438 75.300781 -53.960938 76.625 -49.515625 C 77.945312 -45.066406 78.609375 -40.382812 78.609375 -35.46875 C 78.609375 -30.550781 77.945312 -25.878906 76.625 -21.453125 C 75.300781 -17.035156 73.347656 -13.113281 70.765625 -9.6875 C 68.191406 -6.257812 65.023438 -3.550781 61.265625 -1.5625 C 57.503906 0.425781 53.164062 1.421875 48.25 1.421875 C 44.507812 1.421875 40.828125 0.757812 37.203125 -0.5625 C 33.585938 -1.882812 30.53125 -4.0625 28.03125 -7.09375 L 28.03125 31.078125 Z M 43.703125 -14.546875 C 47.671875 -14.546875 50.929688 -15.46875 53.484375 -17.3125 C 56.046875 -19.15625 57.941406 -21.648438 59.171875 -24.796875 C 60.398438 -27.941406 61.015625 -31.5 61.015625 -35.46875 C 61.015625 -39.445312 60.398438 -43.054688 59.171875 -46.296875 C 57.941406 -49.535156 56.046875 -52.097656 53.484375 -53.984375 C 50.929688 -55.878906 47.671875 -56.828125 43.703125 -56.828125 C 39.773438 -56.828125 36.535156 -55.878906 33.984375 -53.984375 C 31.429688 -52.097656 29.539062 -49.535156 28.3125 -46.296875 C 27.082031 -43.054688 26.46875 -39.445312 26.46875 -35.46875 C 26.46875 -31.5 27.082031 -27.941406 28.3125 -24.796875 C 29.539062 -21.648438 31.429688 -19.15625 33.984375 -17.3125 C 36.535156 -15.46875 39.773438 -14.546875 43.703125 -14.546875 Z M 43.703125 -14.546875 "/></g></g></g><g fill="#000000" fill-opacity="1"><g transform="translate(820.665844, 1110.304276)"><g><path d="M 48.53125 1.421875 C 44.84375 1.421875 41.175781 0.757812 37.53125 -0.5625 C 33.882812 -1.882812 30.8125 -4.0625 28.3125 -7.09375 L 28.3125 0 L 10.421875 0 L 10.421875 -100.25 L 28.3125 -100.25 L 28.3125 -63.78125 C 30.8125 -66.851562 33.8125 -69.050781 37.3125 -70.375 C 40.8125 -71.695312 44.457031 -72.359375 48.25 -72.359375 C 53.207031 -72.359375 57.601562 -71.375 61.4375 -69.40625 C 65.269531 -67.445312 68.472656 -64.753906 71.046875 -61.328125 C 73.628906 -57.898438 75.582031 -53.960938 76.90625 -49.515625 C 78.226562 -45.066406 78.890625 -40.382812 78.890625 -35.46875 C 78.890625 -30.550781 78.226562 -25.878906 76.90625 -21.453125 C 75.582031 -17.035156 73.628906 -13.113281 71.046875 -9.6875 C 68.472656 -6.257812 65.304688 -3.550781 61.546875 -1.5625 C 57.785156 0.425781 53.445312 1.421875 48.53125 1.421875 Z M 44.203125 -14.546875 C 48.171875 -14.546875 51.429688 -15.46875 53.984375 -17.3125 C 56.546875 -19.15625 58.425781 -21.660156 59.625 -24.828125 C 60.832031 -27.992188 61.4375 -31.539062 61.4375 -35.46875 C 61.4375 -39.394531 60.832031 -42.96875 59.625 -46.1875 C 58.425781 -49.40625 56.546875 -51.957031 53.984375 -53.84375 C 51.429688 -55.738281 48.171875 -56.6875 44.203125 -56.6875 C 40.222656 -56.6875 36.941406 -55.738281 34.359375 -53.84375 C 31.785156 -51.957031 29.875 -49.414062 28.625 -46.21875 C 27.375 -43.03125 26.75 -39.445312 26.75 -35.46875 C 26.75 -31.5 27.375 -27.941406 28.625 -24.796875 C 29.875 -21.648438 31.785156 -19.15625 34.359375 -17.3125 C 36.941406 -15.46875 40.222656 -14.546875 44.203125 -14.546875 Z M 44.203125 -14.546875 "/></g></g></g><g fill="#000000" fill-opacity="1"><g transform="translate(904.09354, 1110.304276)"><g><path d="M 14.265625 30.5 L 27.3125 -1.921875 L -0.421875 -70.875 L 18.59375 -70.875 L 36.46875 -21.640625 L 54.625 -70.875 L 73.640625 -70.875 L 33.125 30.5 Z M 14.265625 30.5 "/></g></g></g></svg>
