<svg xmlns="http://www.w3.org/2000/svg" width="80" height="80" viewBox="0 0 80 80">
  <rect width="80" height="80" fill="#f3f4f6" rx="6"/>
  <!-- top-left finder -->
  <rect x="8" y="8" width="22" height="22" rx="3" fill="none" stroke="#9ca3af" stroke-width="2.5"/>
  <rect x="13" y="13" width="12" height="12" rx="1.5" fill="#9ca3af"/>
  <!-- top-right finder -->
  <rect x="50" y="8" width="22" height="22" rx="3" fill="none" stroke="#9ca3af" stroke-width="2.5"/>
  <rect x="55" y="13" width="12" height="12" rx="1.5" fill="#9ca3af"/>
  <!-- bottom-left finder -->
  <rect x="8" y="50" width="22" height="22" rx="3" fill="none" stroke="#9ca3af" stroke-width="2.5"/>
  <rect x="13" y="55" width="12" height="12" rx="1.5" fill="#9ca3af"/>
  <!-- data dots -->
  <rect x="38" y="8" width="5" height="5" rx="1" fill="#9ca3af"/>
  <rect x="38" y="16" width="5" height="5" rx="1" fill="#9ca3af"/>
  <rect x="8" y="38" width="5" height="5" rx="1" fill="#9ca3af"/>
  <rect x="16" y="38" width="5" height="5" rx="1" fill="#9ca3af"/>
  <rect x="50" y="38" width="5" height="5" rx="1" fill="#9ca3af"/>
  <rect x="58" y="38" width="5" height="5" rx="1" fill="#9ca3af"/>
  <rect x="66" y="38" width="5" height="5" rx="1" fill="#9ca3af"/>
  <rect x="38" y="50" width="5" height="5" rx="1" fill="#9ca3af"/>
  <rect x="46" y="58" width="5" height="5" rx="1" fill="#9ca3af"/>
  <rect x="54" y="50" width="5" height="5" rx="1" fill="#9ca3af"/>
  <rect x="62" y="58" width="5" height="5" rx="1" fill="#9ca3af"/>
  <rect x="38" y="66" width="5" height="5" rx="1" fill="#9ca3af"/>
  <rect x="66" y="50" width="5" height="5" rx="1" fill="#9ca3af"/>
  <rect x="66" y="66" width="5" height="5" rx="1" fill="#9ca3af"/>
</svg>
